{"accessors" : [{"bufferView" : 0, "byteOffset" : 0, "componentType" : 5123, "count" : 3930, "type" : "SCALAR", "max" : [3929], "min" : [0]}, {"bufferView" : 1, "byteOffset" : 0, "componentType" : 5126, "count" : 3930, "type" : "VEC3", "max" : [1.1684463024139404, 0.012660091742873192, 1.1674089431762695], "min" : [-1.29312002658844, -1.074244737625122, -1.1674093008041382], "name" : "POSITION"}, {"bufferView" : 1, "byteOffset" : 12, "componentType" : 5126, "count" : 3930, "type" : "VEC3", "max" : [0.9848296642303467, 1.0000044107437134, 0.9848297238349915], "min" : [-0.9709487557411194, -1.0000042915344238, -0.9848295450210571], "name" : "NORMAL"}, {"bufferView" : 1, "byteOffset" : 24, "componentType" : 5126, "count" : 3930, "type" : "VEC2", "max" : [1.0000001192092896, 0.9999999403953552], "min" : [-2.9802322831784522E-09, 0.4999999403953552], "name" : "TEXCOORD_0"}], "asset" : {"generator" : "Aspose.3D 24.1.0", "version" : "2.0"}, "buffers" : [{"uri" : "data:application/octet-stream;base64,", "byteLength" : 133628}], "bufferViews" : [{"buffer" : 0, "byteOffset" : 0, "byteLength" : 7860, "target" : 34963}, {"buffer" : 0, "byteOffset" : 7864, "byteLength" : 125760, "byteStride" : 32, "target" : 34962}], "materials" : [{"name" : "phong1", "pbrMetallicRoughness" : {"baseColorFactor" : [0.6858974099159241, 0.6493976712226868, 0.5214232802391052, 1], "metallicFactor" : 1, "roughnessFactor" : 1}, "emissiveFactor" : [0, 0, 0], "alphaMode" : "OPAQUE", "doubleSided" : false}], "meshes" : [{"primitives" : [{"attributes" : {"POSITION" : 1, "NORMAL" : 2, "TEXCOORD_0" : 3}, "indices" : 0, "material" : 0, "mode" : 4}], "name" : ""}], "nodes" : [{"matrix" : [2.313962467633138, 0, 0, 0, 0, 3.3435329103343516, 0, 0, 0, 0, 2.313962467633138, 0, -0.36186421289849974, 4.32501726002043, 0, 1], "mesh" : 0, "name" : "pSphere1"}], "scene" : 0, "scenes" : [{"nodes" : [0]}]}