{"accessors" : [{"bufferView" : 0, "byteOffset" : 0, "componentType" : 5123, "count" : 2040, "type" : "SCALAR", "max" : [2039], "min" : [0]}, {"bufferView" : 1, "byteOffset" : 0, "componentType" : 5126, "count" : 2040, "type" : "VEC3", "max" : [0.4925084114074707, 0.04363751411437988, 0.4999985694885254], "min" : [-0.5, -4.440892098500626E-16, -0.43348217010498047], "name" : "POSITION"}, {"bufferView" : 1, "byteOffset" : 12, "componentType" : 5126, "count" : 2040, "type" : "VEC3", "max" : [0.9940895438194275, 1.0000044107437134, 1.0000044107437134], "min" : [-1.0000044107437134, -1.0000044107437134, -1.0000044107437134], "name" : "NORMAL"}, {"bufferView" : 1, "byteOffset" : 24, "componentType" : 5126, "count" : 2040, "type" : "VEC2", "max" : [0.24160149693489075, 0.8945892453193665], "min" : [0.015288054943084717, 0.8161780834197998], "name" : "TEXCOORD_0"}, {"bufferView" : 0, "byteOffset" : 4080, "componentType" : 5123, "count" : 456, "type" : "SCALAR", "max" : [455], "min" : [0]}, {"bufferView" : 2, "byteOffset" : 0, "componentType" : 5126, "count" : 456, "type" : "VEC3", "max" : [0.6368093490600586, 0.022219181060791016, 0.5], "min" : [-0.9203929901123047, 0, -0.40211355686187744], "name" : "POSITION"}, {"bufferView" : 2, "byteOffset" : 12, "componentType" : 5126, "count" : 456, "type" : "VEC3", "max" : [0.99891197681427, 1.0000044107437134, 1.0000044107437134], "min" : [-0.99891197681427, -9.389056685904507E-06, -1.0000044107437134], "name" : "NORMAL"}, {"bufferView" : 2, "byteOffset" : 24, "componentType" : 5126, "count" : 456, "type" : "VEC2", "max" : [0.3894386887550354, 0.9797929525375366], "min" : [0.3178471326828003, 0.9485085010528564], "name" : "TEXCOORD_0"}, {"bufferView" : 0, "byteOffset" : 4992, "componentType" : 5123, "count" : 486, "type" : "SCALAR", "max" : [485], "min" : [0]}, {"bufferView" : 3, "byteOffset" : 0, "componentType" : 5126, "count" : 486, "type" : "VEC3", "max" : [1.145591378211975, 2.3089470863342285, 2.3043875694274902], "min" : [0.198070228099823, 2.1382908821105957, 2.1366894245147705], "name" : "POSITION"}, {"bufferView" : 3, "byteOffset" : 12, "componentType" : 5126, "count" : 486, "type" : "VEC3", "max" : [0.9986098408699036, 0.9996374249458313, 0.9996391534805298], "min" : [-0.971598207950592, -0.9990184307098389, -0.9999987483024597], "name" : "NORMAL"}, {"bufferView" : 3, "byteOffset" : 24, "componentType" : 5126, "count" : 486, "type" : "VEC2", "max" : [0.28419554233551025, 0.9831230044364929], "min" : [0.14005833864212036, 0.8678795099258423], "name" : "TEXCOORD_0"}, {"bufferView" : 0, "byteOffset" : 5964, "componentType" : 5123, "count" : 3642, "type" : "SCALAR", "max" : [3641], "min" : [0]}, {"bufferView" : 4, "byteOffset" : 0, "componentType" : 5126, "count" : 3642, "type" : "VEC3", "max" : [0.5, 0.4999998211860657, 0.5140836238861084], "min" : [-0.5, -0.5, -0.5], "name" : "POSITION"}, {"bufferView" : 4, "byteOffset" : 12, "componentType" : 5126, "count" : 3642, "type" : "VEC3", "max" : [1.0000044107437134, 1.0000044107437134, 1.0000044107437134], "min" : [-1.0000044107437134, -1.0000044107437134, -1.0000044107437134], "name" : "NORMAL"}, {"bufferView" : 4, "byteOffset" : 24, "componentType" : 5126, "count" : 3642, "type" : "VEC2", "max" : [0.9581403732299805, 0.964096188545227], "min" : [0.01121068000793457, 0.006154298782348633], "name" : "TEXCOORD_0"}, {"bufferView" : 0, "byteOffset" : 13248, "componentType" : 5123, "count" : 5922, "type" : "SCALAR", "max" : [5921], "min" : [0]}, {"bufferView" : 5, "byteOffset" : 0, "componentType" : 5126, "count" : 5922, "type" : "VEC3", "max" : [0.5000033378601074, 0.5518708229064941, 2.4292678833007812], "min" : [-0.5077898502349854, -0.5600061416625977, -0.4268150329589844], "name" : "POSITION"}, {"bufferView" : 5, "byteOffset" : 12, "componentType" : 5126, "count" : 5922, "type" : "VEC3", "max" : [0.9999083876609802, 0.9999403953552246, 1.0000044107437134], "min" : [-1.0000044107437134, -0.9999954104423523, -0.059847790747880936], "name" : "NORMAL"}, {"bufferView" : 5, "byteOffset" : 24, "componentType" : 5126, "count" : 5922, "type" : "VEC2", "max" : [0.12488341331481934, 0.8784548044204712], "min" : [0.05610990524291992, 0.7523715496063232], "name" : "TEXCOORD_0"}, {"bufferView" : 0, "byteOffset" : 25092, "componentType" : 5123, "count" : 5922, "type" : "SCALAR", "max" : [5921], "min" : [0]}, {"bufferView" : 6, "byteOffset" : 0, "componentType" : 5126, "count" : 5922, "type" : "VEC3", "max" : [0.5000033378601074, 0.5518708229064941, 2.4292678833007812], "min" : [-0.5077898502349854, -0.5600061416625977, -0.4268150329589844], "name" : "POSITION"}, {"bufferView" : 6, "byteOffset" : 12, "componentType" : 5126, "count" : 5922, "type" : "VEC3", "max" : [0.9999083876609802, 0.9999403953552246, 1.0000044107437134], "min" : [-1.0000044107437134, -0.9999954104423523, -0.059847790747880936], "name" : "NORMAL"}, {"bufferView" : 6, "byteOffset" : 24, "componentType" : 5126, "count" : 5922, "type" : "VEC2", "max" : [0.18155419826507568, 0.8651617765426636], "min" : [0.002611130475997925, 0.7494876384735107], "name" : "TEXCOORD_0"}], "asset" : {"generator" : "Aspose.3D 24.1.0", "version" : "2.0"}, "buffers" : [{"uri" : "data:application/octet-stream;base64,", "byteLength" : 627940}], "bufferViews" : [{"buffer" : 0, "byteOffset" : 0, "byteLength" : 36936, "target" : 34963}, {"buffer" : 0, "byteOffset" : 36940, "byteLength" : 65280, "byteStride" : 32, "target" : 34962}, {"buffer" : 0, "byteOffset" : 102224, "byteLength" : 14592, "byteStride" : 32, "target" : 34962}, {"buffer" : 0, "byteOffset" : 116820, "byteLength" : 15552, "byteStride" : 32, "target" : 34962}, {"buffer" : 0, "byteOffset" : 132376, "byteLength" : 116544, "byteStride" : 32, "target" : 34962}, {"buffer" : 0, "byteOffset" : 248924, "byteLength" : 189504, "byteStride" : 32, "target" : 34962}, {"buffer" : 0, "byteOffset" : 438432, "byteLength" : 189504, "byteStride" : 32, "target" : 34962}], "images" : [{"uri" : "C:/Users/zaina/OneDrive - Algonquin College/Desktop/IMD3901 - DS3/IMD3901_Science&Tech_Models/OutUVs/Texture_Incubator_f.png"}], "materials" : [{"name" : "phong4", "pbrMetallicRoughness" : {"baseColorFactor" : [1, 1, 1, 1], "baseColorTexture" : {"index" : 0, "texCoord" : 0}, "metallicFactor" : 1, "roughnessFactor" : 1}, "emissiveFactor" : [0, 0, 0], "alphaMode" : "OPAQUE", "doubleSided" : false}, {"name" : "phong4", "pbrMetallicRoughness" : {"baseColorFactor" : [1, 1, 1, 1], "baseColorTexture" : {"index" : 0, "texCoord" : 0}, "metallicFactor" : 1, "roughnessFactor" : 1}, "emissiveFactor" : [0, 0, 0], "alphaMode" : "OPAQUE", "doubleSided" : false}, {"name" : "phong4", "pbrMetallicRoughness" : {"baseColorFactor" : [1, 1, 1, 1], "baseColorTexture" : {"index" : 0, "texCoord" : 0}, "metallicFactor" : 1, "roughnessFactor" : 1}, "emissiveFactor" : [0, 0, 0], "alphaMode" : "OPAQUE", "doubleSided" : false}, {"name" : "phong4", "pbrMetallicRoughness" : {"baseColorFactor" : [1, 1, 1, 1], "baseColorTexture" : {"index" : 0, "texCoord" : 0}, "metallicFactor" : 1, "roughnessFactor" : 1}, "emissiveFactor" : [0, 0, 0], "alphaMode" : "OPAQUE", "doubleSided" : false}, {"name" : "phong4", "pbrMetallicRoughness" : {"baseColorFactor" : [1, 1, 1, 1], "baseColorTexture" : {"index" : 0, "texCoord" : 0}, "metallicFactor" : 1, "roughnessFactor" : 1}, "emissiveFactor" : [0, 0, 0], "alphaMode" : "OPAQUE", "doubleSided" : false}, {"name" : "phong4", "pbrMetallicRoughness" : {"baseColorFactor" : [1, 1, 1, 1], "baseColorTexture" : {"index" : 0, "texCoord" : 0}, "metallicFactor" : 1, "roughnessFactor" : 1}, "emissiveFactor" : [0, 0, 0], "alphaMode" : "OPAQUE", "doubleSided" : false}], "meshes" : [{"primitives" : [{"attributes" : {"POSITION" : 1, "NORMAL" : 2, "TEXCOORD_0" : 3}, "indices" : 0, "material" : 0, "mode" : 4}], "name" : ""}, {"primitives" : [{"attributes" : {"POSITION" : 5, "NORMAL" : 6, "TEXCOORD_0" : 7}, "indices" : 4, "material" : 1, "mode" : 4}], "name" : ""}, {"primitives" : [{"attributes" : {"POSITION" : 9, "NORMAL" : 10, "TEXCOORD_0" : 11}, "indices" : 8, "material" : 2, "mode" : 4}], "name" : ""}, {"primitives" : [{"attributes" : {"POSITION" : 13, "NORMAL" : 14, "TEXCOORD_0" : 15}, "indices" : 12, "material" : 3, "mode" : 4}], "name" : ""}, {"primitives" : [{"attributes" : {"POSITION" : 17, "NORMAL" : 18, "TEXCOORD_0" : 19}, "indices" : 16, "material" : 4, "mode" : 4}], "name" : ""}, {"primitives" : [{"attributes" : {"POSITION" : 21, "NORMAL" : 22, "TEXCOORD_0" : 23}, "indices" : 20, "material" : 5, "mode" : 4}], "name" : ""}], "nodes" : [{"matrix" : [0.22469136627269898, 0, 0, 0, 0, 6.123233995736766E-17, 1, 0, 0, -0.45555556283029747, 2.7894733092694735E-17, 0, 1.018550011128023, 2.2605258526695238, 1.5892049653392184, 1], "mesh" : 0, "name" : "pasted__pPlane1"}, {"matrix" : [1.2841152949566319E-17, 0.20971194239035826, 0, 0, -6.123233995736766E-17, 3.749399456654644E-33, 1, 0, 0.45555556283029747, -2.7894733092694735E-17, 2.7894733092694735E-17, 0, 0.643088472606588, 2.283378476743121, 1.6293809363530998, 1], "mesh" : 1, "name" : "pasted__pPlane2"}, {"matrix" : [1, 0, 0, 0, 0, 1, 0, 0, 0, 0, 1, 0, -0.04271315836926892, 0.01710939484355345, -0.5491538279690755, 1], "mesh" : 2, "name" : "pasted__pCylinder1"}, {"matrix" : [3.4481430860648974, 0, 0, 0, 0, 4.046290329379472, 0, 0, 0, 0, 3.1666620303874486, 0, -0.3246065769998251, 2.0549297960643376, 0, 1], "mesh" : 3, "name" : "pCube1"}, {"matrix" : [0.71111110356341, 0, 0, 0, 0, 0.544444431550453, 0, 0, 0, 0, 0.0362743139731991, 0, -1.5021807222297328, 3.2507015908165404, 1.5896225386092826, 1], "mesh" : 4, "name" : "pCube4"}, {"matrix" : [0.71111110356341, 0, 0, 0, 0, 0.544444431550453, 0, 0, 0, 0, 0.0362743139731991, 0, -1.5021807222297328, 1.3065996588690307, 1.5896225386092826, 1], "mesh" : 5, "name" : "pCube5"}, {"children" : [0, 1, 2, 3, 4, 5], "name" : "incubator"}], "samplers" : [{"magFilter" : 9729, "minFilter" : 9729, "wrapS" : 10497, "wrapT" : 10497}], "scene" : 0, "scenes" : [{"nodes" : [6]}], "textures" : [{"sampler" : 0, "source" : 0, "name" : "file1"}]}