{"accessors" : [{"bufferView" : 0, "byteOffset" : 0, "componentType" : 5123, "count" : 4896, "type" : "SCALAR", "max" : [4895], "min" : [0]}, {"bufferView" : 1, "byteOffset" : 0, "componentType" : 5126, "count" : 4896, "type" : "VEC3", "max" : [0.477294921875, 2.04329514503479, 0.5223729014396667], "min" : [-1.030203104019165, 0.36934250593185425, 0.03710029646754265], "name" : "POSITION"}, {"bufferView" : 1, "byteOffset" : 12, "componentType" : 5126, "count" : 4896, "type" : "VEC3", "max" : [1.0000044107437134, 1.0000042915344238, 0.9999986886978149], "min" : [-0.9999290704727173, -1.0000044107437134, -0.9999750852584839], "name" : "NORMAL"}, {"bufferView" : 1, "byteOffset" : 24, "componentType" : 5126, "count" : 4896, "type" : "VEC2", "max" : [0.9905604720115662, 1.2141715288162231], "min" : [-0.30369117856025696, 0.02537006139755249], "name" : "TEXCOORD_0"}, {"bufferView" : 0, "byteOffset" : 9792, "componentType" : 5123, "count" : 1080, "type" : "SCALAR", "max" : [1079], "min" : [0]}, {"bufferView" : 2, "byteOffset" : 0, "componentType" : 5126, "count" : 1080, "type" : "VEC3", "max" : [0.5174921751022339, 0.019861698150634766, 0.5000001192092896], "min" : [-0.509579062461853, -0.003646373748779297, -0.5000000596046448], "name" : "POSITION"}, {"bufferView" : 2, "byteOffset" : 12, "componentType" : 5126, "count" : 1080, "type" : "VEC3", "max" : [1.0000044107437134, 1.0000044107437134, 1.0000044107437134], "min" : [-1.0000044107437134, -1.0000044107437134, -1.0000044107437134], "name" : "NORMAL"}, {"bufferView" : 2, "byteOffset" : 24, "componentType" : 5126, "count" : 1080, "type" : "VEC2", "max" : [0.8020519614219666, 0.563185453414917], "min" : [0.6063743829727173, 0.41623806953430176], "name" : "TEXCOORD_0"}, {"bufferView" : 0, "byteOffset" : 11952, "componentType" : 5123, "count" : 2340, "type" : "SCALAR", "max" : [2339], "min" : [0]}, {"bufferView" : 3, "byteOffset" : 0, "componentType" : 5126, "count" : 2340, "type" : "VEC3", "max" : [0.6778807640075684, 0.4999961853027344, 0.5], "min" : [-0.5, -0.5000038146972656, -0.5], "name" : "POSITION"}, {"bufferView" : 3, "byteOffset" : 12, "componentType" : 5126, "count" : 2340, "type" : "VEC3", "max" : [1.0000044107437134, 1.0000044107437134, 1.0000044107437134], "min" : [-0.9999974966049194, -1.0000044107437134, -1.0000044107437134], "name" : "NORMAL"}, {"bufferView" : 3, "byteOffset" : 24, "componentType" : 5126, "count" : 2340, "type" : "VEC2", "max" : [0.9980080127716064, 0.9980148673057556], "min" : [0.00199204683303833, 0.005442976951599121], "name" : "TEXCOORD_0"}, {"bufferView" : 0, "byteOffset" : 16632, "componentType" : 5123, "count" : 1296, "type" : "SCALAR", "max" : [1295], "min" : [0]}, {"bufferView" : 4, "byteOffset" : 0, "componentType" : 5126, "count" : 1296, "type" : "VEC3", "max" : [-0.8074776530265808, -0.025293588638305664, 0.8512337803840637], "min" : [-2.0489394664764404, -0.2187708616256714, 0.2038901448249817], "name" : "POSITION"}, {"bufferView" : 4, "byteOffset" : 12, "componentType" : 5126, "count" : 1296, "type" : "VEC3", "max" : [0.991856575012207, 0.9993902444839478, 0.9498416781425476], "min" : [-0.885748028755188, -0.9995678663253784, -0.8929167985916138], "name" : "NORMAL"}, {"bufferView" : 4, "byteOffset" : 24, "componentType" : 5126, "count" : 1296, "type" : "VEC2", "max" : [0.8172116279602051, 0.7259735465049744], "min" : [0.7908889055252075, 0.7005969285964966], "name" : "TEXCOORD_0"}, {"bufferView" : 0, "byteOffset" : 19224, "componentType" : 5123, "count" : 1296, "type" : "SCALAR", "max" : [1295], "min" : [0]}, {"bufferView" : 5, "byteOffset" : 0, "componentType" : 5126, "count" : 1296, "type" : "VEC3", "max" : [-0.8083532452583313, -0.02677631378173828, -0.20389020442962646], "min" : [-2.027647018432617, -0.21699142456054688, -0.8500789403915405], "name" : "POSITION"}, {"bufferView" : 5, "byteOffset" : 12, "componentType" : 5126, "count" : 1296, "type" : "VEC3", "max" : [0.9914352297782898, 0.99974125623703, 0.9063394665718079], "min" : [-0.9334048628807068, -0.9998287558555603, -0.9534419178962708], "name" : "NORMAL"}, {"bufferView" : 5, "byteOffset" : 24, "componentType" : 5126, "count" : 1296, "type" : "VEC2", "max" : [0.9862171411514282, 0.7037630081176758], "min" : [0.9578399658203125, 0.6789380311965942], "name" : "TEXCOORD_0"}, {"bufferView" : 0, "byteOffset" : 21816, "componentType" : 5123, "count" : 720, "type" : "SCALAR", "max" : [719], "min" : [0]}, {"bufferView" : 6, "byteOffset" : 0, "componentType" : 5126, "count" : 720, "type" : "VEC3", "max" : [-1.0135701894760132, 0.03254425525665283, 0.07375677675008774], "min" : [-1.161834478378296, 0.01809847354888916, -0.07375779002904892], "name" : "POSITION"}, {"bufferView" : 6, "byteOffset" : 12, "componentType" : 5126, "count" : 720, "type" : "VEC3", "max" : [1.0000044107437134, 1.0000044107437134, 0.9952312707901001], "min" : [-1.0000044107437134, -0.5988333821296692, -0.9952305555343628], "name" : "NORMAL"}, {"bufferView" : 6, "byteOffset" : 24, "componentType" : 5126, "count" : 720, "type" : "VEC2", "max" : [0.8013168573379517, 0.934506356716156], "min" : [0.6989244222640991, 0.8516373038291931], "name" : "TEXCOORD_0"}, {"bufferView" : 0, "byteOffset" : 23256, "componentType" : 5123, "count" : 498, "type" : "SCALAR", "max" : [497], "min" : [0]}, {"bufferView" : 7, "byteOffset" : 0, "componentType" : 5126, "count" : 498, "type" : "VEC3", "max" : [0.04773852601647377, 0.967495858669281, 0.32397329807281494], "min" : [-0.1370173543691635, 0.9577765464782715, 0.14061015844345093], "name" : "POSITION"}, {"bufferView" : 7, "byteOffset" : 12, "componentType" : 5126, "count" : 498, "type" : "VEC3", "max" : [0.639710009098053, 0.9999943375587463, 0.6326035857200623], "min" : [-0.6356044411659241, 0.7681856751441956, -0.6347282528877258], "name" : "NORMAL"}, {"bufferView" : 7, "byteOffset" : 24, "componentType" : 5126, "count" : 498, "type" : "VEC2", "max" : [0.8980562090873718, 0.3805747628211975], "min" : [0.7747071981430054, 0.25831669569015503], "name" : "TEXCOORD_0"}, {"bufferView" : 0, "byteOffset" : 24252, "componentType" : 5123, "count" : 6213, "type" : "SCALAR", "max" : [6212], "min" : [0]}, {"bufferView" : 8, "byteOffset" : 0, "componentType" : 5126, "count" : 6213, "type" : "VEC3", "max" : [0.477294921875, 2.04329514503479, 0.5223729014396667], "min" : [-1.030203104019165, 0.36934250593185425, 0.03710029646754265], "name" : "POSITION"}, {"bufferView" : 8, "byteOffset" : 12, "componentType" : 5126, "count" : 6213, "type" : "VEC3", "max" : [1.0000044107437134, 1.0000042915344238, 0.9999986886978149], "min" : [-0.9999290704727173, -1.0000044107437134, -0.9999750852584839], "name" : "NORMAL"}, {"bufferView" : 8, "byteOffset" : 24, "componentType" : 5126, "count" : 6213, "type" : "VEC2", "max" : [0.997715950012207, 0.9980079531669617], "min" : [0.0019914491567760706, 0.0019919276237487793], "name" : "TEXCOORD_0"}, {"bufferView" : 0, "byteOffset" : 36680, "componentType" : 5123, "count" : 69, "type" : "SCALAR", "max" : [57], "min" : [0]}, {"bufferView" : 9, "byteOffset" : 0, "componentType" : 5126, "count" : 58, "type" : "VEC3", "max" : [-0.21896445751190186, 2.007965564727783, 0.3975100517272949], "min" : [-0.3277391195297241, 1.8947322368621826, 0.3783184289932251], "name" : "POSITION"}, {"bufferView" : 9, "byteOffset" : 12, "componentType" : 5126, "count" : 58, "type" : "VEC3", "max" : [0.17375262081623077, 1.855875382261729E-07, 0.9847941994667053], "min" : [0.17375051975250244, -8.461908578283328E-07, 0.9847937226295471], "name" : "NORMAL"}, {"bufferView" : 9, "byteOffset" : 24, "componentType" : 5126, "count" : 58, "type" : "VEC2", "max" : [0.28259944915771484, 0.994232714176178], "min" : [0.2110755890607834, 0.920186460018158], "name" : "TEXCOORD_0"}, {"bufferView" : 0, "byteOffset" : 36820, "componentType" : 5123, "count" : 66, "type" : "SCALAR", "max" : [55], "min" : [0]}, {"bufferView" : 10, "byteOffset" : 0, "componentType" : 5126, "count" : 56, "type" : "VEC3", "max" : [-0.24336886405944824, 2.0305066108703613, 0.40195149183273315], "min" : [-0.3529128432273865, 1.915602684020996, 0.38262417912483215], "name" : "POSITION"}, {"bufferView" : 10, "byteOffset" : 12, "componentType" : 5126, "count" : 56, "type" : "VEC3", "max" : [0.17375215888023376, 6.190722388055292E-07, 0.9847943186759949], "min" : [0.17374978959560394, -1.381718902848661E-06, 0.9847938418388367], "name" : "NORMAL"}, {"bufferView" : 10, "byteOffset" : 24, "componentType" : 5126, "count" : 56, "type" : "VEC2", "max" : [0.3731813430786133, 0.994538426399231], "min" : [0.3009621798992157, 0.9194684624671936], "name" : "TEXCOORD_0"}, {"bufferView" : 0, "byteOffset" : 36952, "componentType" : 5123, "count" : 4680, "type" : "SCALAR", "max" : [4679], "min" : [0]}, {"bufferView" : 11, "byteOffset" : 0, "componentType" : 5126, "count" : 4680, "type" : "VEC3", "max" : [1.1333332061767578, 0.5011957883834839, 1.1333338022232056], "min" : [-2.4552438259124756, -0.6867948770523071, -1.133333444595337], "name" : "POSITION"}, {"bufferView" : 11, "byteOffset" : 12, "componentType" : 5126, "count" : 4680, "type" : "VEC3", "max" : [1.0000044107437134, 1.0000044107437134, 1.0000044107437134], "min" : [-0.999940037727356, -1.0000044107437134, -1.0000044107437134], "name" : "NORMAL"}, {"bufferView" : 11, "byteOffset" : 24, "componentType" : 5126, "count" : 4680, "type" : "VEC2", "max" : [0.9980080127716064, 0.9978988766670227], "min" : [0.001992061734199524, 0.11548209190368652], "name" : "TEXCOORD_0"}, {"bufferView" : 0, "byteOffset" : 46312, "componentType" : 5123, "count" : 1716, "type" : "SCALAR", "max" : [1715], "min" : [0]}, {"bufferView" : 12, "byteOffset" : 0, "componentType" : 5126, "count" : 1716, "type" : "VEC3", "max" : [0.49365830421447754, -0.5, 0.4936586618423462], "min" : [-0.4936586916446686, -0.6138819456100464, -0.4936584234237671], "name" : "POSITION"}, {"bufferView" : 12, "byteOffset" : 12, "componentType" : 5126, "count" : 1716, "type" : "VEC3", "max" : [1.0000044107437134, 0.999775767326355, 1.0000044107437134], "min" : [-1.0000044107437134, -1.0000044107437134, -1.0000044107437134], "name" : "NORMAL"}, {"bufferView" : 12, "byteOffset" : 24, "componentType" : 5126, "count" : 1716, "type" : "VEC2", "max" : [0.8027164936065674, 0.9981181025505066], "min" : [0.12535829842090607, 0.05715811252593994], "name" : "TEXCOORD_0"}], "asset" : {"generator" : "Aspose.3D 24.1.0", "version" : "2.0"}, "buffers" : [{"uri" : "data:application/octet-stream;base64,", "byteLength" : 845636}], "bufferViews" : [{"buffer" : 0, "byteOffset" : 0, "byteLength" : 49744, "target" : 34963}, {"buffer" : 0, "byteOffset" : 49748, "byteLength" : 156672, "byteStride" : 32, "target" : 34962}, {"buffer" : 0, "byteOffset" : 206424, "byteLength" : 34560, "byteStride" : 32, "target" : 34962}, {"buffer" : 0, "byteOffset" : 240988, "byteLength" : 74880, "byteStride" : 32, "target" : 34962}, {"buffer" : 0, "byteOffset" : 315872, "byteLength" : 41472, "byteStride" : 32, "target" : 34962}, {"buffer" : 0, "byteOffset" : 357348, "byteLength" : 41472, "byteStride" : 32, "target" : 34962}, {"buffer" : 0, "byteOffset" : 398824, "byteLength" : 23040, "byteStride" : 32, "target" : 34962}, {"buffer" : 0, "byteOffset" : 421868, "byteLength" : 15936, "byteStride" : 32, "target" : 34962}, {"buffer" : 0, "byteOffset" : 437808, "byteLength" : 198816, "byteStride" : 32, "target" : 34962}, {"buffer" : 0, "byteOffset" : 636628, "byteLength" : 2208, "byteStride" : 32, "target" : 34962}, {"buffer" : 0, "byteOffset" : 638840, "byteLength" : 2112, "byteStride" : 32, "target" : 34962}, {"buffer" : 0, "byteOffset" : 640956, "byteLength" : 149760, "byteStride" : 32, "target" : 34962}, {"buffer" : 0, "byteOffset" : 790720, "byteLength" : 54912, "byteStride" : 32, "target" : 34962}], "materials" : [{"name" : "phong3", "pbrMetallicRoughness" : {"baseColorFactor" : [0.07000000029802322, 0.07000000029802322, 0.07000000029802322, 1], "metallicFactor" : 1, "roughnessFactor" : 1}, "emissiveFactor" : [0, 0, 0], "alphaMode" : "OPAQUE", "doubleSided" : false}, {"name" : "phong1", "pbrMetallicRoughness" : {"baseColorFactor" : [0.21153846383094788, 0.21153846383094788, 0.21153846383094788, 1], "metallicFactor" : 1, "roughnessFactor" : 1}, "emissiveFactor" : [0, 0, 0], "alphaMode" : "OPAQUE", "doubleSided" : false}, {"name" : "phong4", "pbrMetallicRoughness" : {"baseColorFactor" : [0.07000000029802322, 0.07000000029802322, 0.07000000029802322, 1], "metallicFactor" : 1, "roughnessFactor" : 1}, "emissiveFactor" : [0, 0, 0], "alphaMode" : "OPAQUE", "doubleSided" : false}, {"name" : "phong5", "pbrMetallicRoughness" : {"baseColorFactor" : [0.14102564752101898, 0.14102564752101898, 0.14102564752101898, 1], "metallicFactor" : 1, "roughnessFactor" : 1}, "emissiveFactor" : [0, 0, 0], "alphaMode" : "OPAQUE", "doubleSided" : false}, {"name" : "phong5", "pbrMetallicRoughness" : {"baseColorFactor" : [0.14102564752101898, 0.14102564752101898, 0.14102564752101898, 1], "metallicFactor" : 1, "roughnessFactor" : 1}, "emissiveFactor" : [0, 0, 0], "alphaMode" : "OPAQUE", "doubleSided" : false}, {"name" : "phong5", "pbrMetallicRoughness" : {"baseColorFactor" : [0.14102564752101898, 0.14102564752101898, 0.14102564752101898, 1], "metallicFactor" : 1, "roughnessFactor" : 1}, "emissiveFactor" : [0, 0, 0], "alphaMode" : "OPAQUE", "doubleSided" : false}, {"name" : "phong6", "pbrMetallicRoughness" : {"baseColorFactor" : [0.13099999725818634, 0.13099999725818634, 0.13099999725818634, 1], "metallicFactor" : 1, "roughnessFactor" : 1}, "emissiveFactor" : [0, 0, 0], "alphaMode" : "OPAQUE", "doubleSided" : false}, {"name" : "phong3", "pbrMetallicRoughness" : {"baseColorFactor" : [0.07000000029802322, 0.07000000029802322, 0.07000000029802322, 1], "metallicFactor" : 1, "roughnessFactor" : 1}, "emissiveFactor" : [0, 0, 0], "alphaMode" : "OPAQUE", "doubleSided" : false}, {"name" : "phong7", "pbrMetallicRoughness" : {"baseColorFactor" : [0.38461539149284363, 0.38461539149284363, 0.38461539149284363, 1], "metallicFactor" : 1, "roughnessFactor" : 1}, "emissiveFactor" : [0, 0, 0], "alphaMode" : "OPAQUE", "doubleSided" : false}, {"name" : "phong7", "pbrMetallicRoughness" : {"baseColorFactor" : [0.38461539149284363, 0.38461539149284363, 0.38461539149284363, 1], "metallicFactor" : 1, "roughnessFactor" : 1}, "emissiveFactor" : [0, 0, 0], "alphaMode" : "OPAQUE", "doubleSided" : false}, {"name" : "phong2", "pbrMetallicRoughness" : {"baseColorFactor" : [0.09615384787321091, 0.09615384787321091, 0.09615384787321091, 1], "metallicFactor" : 1, "roughnessFactor" : 1}, "emissiveFactor" : [0, 0, 0], "alphaMode" : "OPAQUE", "doubleSided" : false}, {"name" : "phong8", "pbrMetallicRoughness" : {"baseColorFactor" : [0.08974359184503555, 0.08974359184503555, 0.08974359184503555, 1], "metallicFactor" : 1, "roughnessFactor" : 1}, "emissiveFactor" : [0, 0, 0], "alphaMode" : "OPAQUE", "doubleSided" : false}], "meshes" : [{"primitives" : [{"attributes" : {"POSITION" : 1, "NORMAL" : 2, "TEXCOORD_0" : 3}, "indices" : 0, "material" : 0, "mode" : 4}], "name" : ""}, {"primitives" : [{"attributes" : {"POSITION" : 5, "NORMAL" : 6, "TEXCOORD_0" : 7}, "indices" : 4, "material" : 1, "mode" : 4}], "name" : ""}, {"primitives" : [{"attributes" : {"POSITION" : 9, "NORMAL" : 10, "TEXCOORD_0" : 11}, "indices" : 8, "material" : 2, "mode" : 4}], "name" : ""}, {"primitives" : [{"attributes" : {"POSITION" : 13, "NORMAL" : 14, "TEXCOORD_0" : 15}, "indices" : 12, "material" : 3, "mode" : 4}], "name" : ""}, {"primitives" : [{"attributes" : {"POSITION" : 17, "NORMAL" : 18, "TEXCOORD_0" : 19}, "indices" : 16, "material" : 4, "mode" : 4}], "name" : ""}, {"primitives" : [{"attributes" : {"POSITION" : 21, "NORMAL" : 22, "TEXCOORD_0" : 23}, "indices" : 20, "material" : 5, "mode" : 4}], "name" : ""}, {"primitives" : [{"attributes" : {"POSITION" : 25, "NORMAL" : 26, "TEXCOORD_0" : 27}, "indices" : 24, "material" : 6, "mode" : 4}], "name" : ""}, {"primitives" : [{"attributes" : {"POSITION" : 29, "NORMAL" : 30, "TEXCOORD_0" : 31}, "indices" : 28, "material" : 7, "mode" : 4}], "name" : ""}, {"primitives" : [{"attributes" : {"POSITION" : 33, "NORMAL" : 34, "TEXCOORD_0" : 35}, "indices" : 32, "material" : 8, "mode" : 4}], "name" : ""}, {"primitives" : [{"attributes" : {"POSITION" : 37, "NORMAL" : 38, "TEXCOORD_0" : 39}, "indices" : 36, "material" : 9, "mode" : 4}], "name" : ""}, {"primitives" : [{"attributes" : {"POSITION" : 41, "NORMAL" : 42, "TEXCOORD_0" : 43}, "indices" : 40, "material" : 10, "mode" : 4}], "name" : ""}, {"primitives" : [{"attributes" : {"POSITION" : 45, "NORMAL" : 46, "TEXCOORD_0" : 47}, "indices" : 44, "material" : 11, "mode" : 4}], "name" : ""}], "nodes" : [{"matrix" : [1, 0, 0, 0, 0, 1, 0, 0, 0, 0, -1.0211825069496057, 0, 0, 0, -9.835170569416629E-05, 1], "mesh" : 0, "name" : "pCylinder9"}, {"matrix" : [0.7063923749526227, 0, 0.13275235821689582, 0, 0, 1, 0, 0, -0.040808538292893125, 0, 0.21714748174916368, 0, -0.07211286573410945, 2.0519753546147568, 0.29711480593079925, 1], "mesh" : 1, "name" : "pPlane1"}, {"matrix" : [1, 0, 0, 0, 0, 0.11063115833858934, 0, 0, 0, 0, 1.7595776853271097, 0, 0.33904385566711426, 1.9924750328063965, 1.2782418679080365E-08, 1], "mesh" : 2, "name" : "pCube1"}, {"matrix" : [0.3756402793390065, 0, 0, 0, 0, 2.4185667603580367, 0, 0, 0, 0, 0.3756402793390065, 0, 0.33749181242166637, 3.703972641327795, 0, 1], "mesh" : 3, "name" : "polySurface2"}, {"matrix" : [0.37564027933900646, 0, 0, 0, 0, 2.4185667603580367, 0, 0, 0, 0, 0.37564027933900646, 0, 0.33749181242166637, 3.703972641327795, 0, 1], "mesh" : 4, "name" : "polySurface4"}, {"matrix" : [0.3756402793390064, 0, 0, 0, 0, 2.4185667603580367, 0, 0, 0, 0, 0.3756402793390064, 0, 0.33749181242166637, 3.703972641327795, 0, 1], "mesh" : 5, "name" : "polySurface6"}, {"matrix" : [0.9999999999999999, 0, 0, 0, 0, 1, 0, 0, 0, 0, 0.9999999999999999, 0, 5.551115123125783E-17, 0, 0, 1], "mesh" : 6, "name" : "polySurface8"}, {"matrix" : [0.9999999999999998, 0, 0, 0, 0, 1, 0, 0, 0, 0, 0.9999999999999998, 0, 5.551115123125783E-17, 0, 0, 1], "mesh" : 7, "name" : "polySurface9"}, {"matrix" : [0.9999999999999998, 0, 0, 0, 0, 1, 0, 0, 0, 0, 0.9999999999999998, 0, 5.551115123125783E-17, 0, 0, 1], "mesh" : 8, "name" : "polySurface10"}, {"matrix" : [0.9999999999999998, 0, 0, 0, 0, 1, 0, 0, 0, 0, 0.9999999999999998, 0, 5.551115123125783E-17, 0, 0, 1], "mesh" : 9, "name" : "polySurface11"}, {"matrix" : [0.3756402793390064, 0, 0, 0, 0, 2.4185667603580367, 0, 0, 0, 0, 0.3756402793390064, 0, 0.33749181242166637, 3.703972641327795, 0, 1], "mesh" : 10, "name" : "polySurface12"}, {"matrix" : [0.3756402793390064, 0, 0, 0, 0, 2.4185667603580367, 0, 0, 0, 0, 0.3756402793390064, 0, 0.33749181242166637, 3.703972641327795, 0, 1], "mesh" : 11, "name" : "polySurface13"}, {"children" : [0, 1, 2, 3, 4, 5, 6, 7, 8, 9, 10, 11], "name" : "group1"}], "scene" : 0, "scenes" : [{"nodes" : [12]}]}