{"accessors" : [{"bufferView" : 0, "byteOffset" : 0, "componentType" : 5123, "count" : 23670, "type" : "SCALAR", "max" : [23669], "min" : [0]}, {"bufferView" : 1, "byteOffset" : 0, "componentType" : 5126, "count" : 23670, "type" : "VEC3", "max" : [0.495221883058548, 0.5456091165542603, 0.4984737038612366], "min" : [-0.4903510808944702, -0.7751219272613525, -0.4766843318939209], "name" : "POSITION"}, {"bufferView" : 1, "byteOffset" : 12, "componentType" : 5126, "count" : 23670, "type" : "VEC3", "max" : [1.0000044107437134, 1.0000044107437134, 1.0000044107437134], "min" : [-1.0000044107437134, -0.9988191723823547, -1.0000044107437134], "name" : "NORMAL"}, {"bufferView" : 1, "byteOffset" : 24, "componentType" : 5126, "count" : 23670, "type" : "VEC3", "max" : [0, 0, 0], "min" : [0, 0, 0], "name" : "COLOR_0"}, {"bufferView" : 1, "byteOffset" : 36, "componentType" : 5126, "count" : 23670, "type" : "VEC3", "max" : [0, 0, 0], "min" : [0, 0, 0], "name" : "COLOR_1"}, {"bufferView" : 1, "byteOffset" : 48, "componentType" : 5126, "count" : 23670, "type" : "VEC2", "max" : [0.9927582740783691, 0.9925634264945984], "min" : [0.009515762329101562, 0.006724238395690918], "name" : "TEXCOORD_0"}, {"bufferView" : 0, "byteOffset" : 47340, "componentType" : 5123, "count" : 378, "type" : "SCALAR", "max" : [319], "min" : [0]}, {"bufferView" : 2, "byteOffset" : 0, "componentType" : 5126, "count" : 320, "type" : "VEC3", "max" : [0.2962697744369507, 0.5010490417480469, -0.04124182462692261], "min" : [-0.27150958776474, 0.49676719307899475, -0.2928086519241333], "name" : "POSITION"}, {"bufferView" : 2, "byteOffset" : 12, "componentType" : 5126, "count" : 320, "type" : "VEC3", "max" : [0.1479710042476654, 0.999907910823822, 0.1756877452135086], "min" : [-0.0017319091130048037, 0.9755264520645142, -0.21990196406841278], "name" : "NORMAL"}, {"bufferView" : 2, "byteOffset" : 24, "componentType" : 5126, "count" : 320, "type" : "VEC2", "max" : [0.9927582740783691, 0.9917157888412476], "min" : [0.7866035103797913, 0.8175698518753052], "name" : "TEXCOORD_0"}, {"bufferView" : 0, "byteOffset" : 48096, "componentType" : 5123, "count" : 987, "type" : "SCALAR", "max" : [986], "min" : [0]}, {"bufferView" : 3, "byteOffset" : 0, "componentType" : 5126, "count" : 987, "type" : "VEC3", "max" : [1.4865264892578125, 1.2972831726074219, 1.0966012477874756], "min" : [-1.4071178436279297, -1.7401847839355469, -0.42974114418029785], "name" : "POSITION"}, {"bufferView" : 3, "byteOffset" : 12, "componentType" : 5126, "count" : 987, "type" : "VEC3", "max" : [1.0000009536743164, 0.9996418952941895, 0.9889208078384399], "min" : [-0.9999858736991882, -0.9899098873138428, -0.27419787645339966], "name" : "NORMAL"}, {"bufferView" : 3, "byteOffset" : 24, "componentType" : 5126, "count" : 987, "type" : "VEC2", "max" : [0.5781066417694092, 0.10357820987701416], "min" : [0.49359995126724243, 0.015317916870117188], "name" : "TEXCOORD_0"}], "asset" : {"generator" : "Aspose.3D 24.1.0", "version" : "2.0"}, "buffers" : [{"uri" : "data:application/octet-stream;base64,", "byteLength" : 1419288}], "bufferViews" : [{"buffer" : 0, "byteOffset" : 0, "byteLength" : 50072, "target" : 34963}, {"buffer" : 0, "byteOffset" : 50076, "byteLength" : 1325520, "byteStride" : 56, "target" : 34962}, {"buffer" : 0, "byteOffset" : 1375600, "byteLength" : 12096, "byteStride" : 32, "target" : 34962}, {"buffer" : 0, "byteOffset" : 1387700, "byteLength" : 31584, "byteStride" : 32, "target" : 34962}], "images" : [{"uri" : "C:/Users/zaina/OneDrive - Algonquin College/Desktop/IMD3901 - DS3/IMD3901_Science&Tech_Models/OutUVs/Texture_pager.png"}], "materials" : [{"name" : "phong1", "pbrMetallicRoughness" : {"baseColorFactor" : [1, 1, 1, 1], "baseColorTexture" : {"index" : 0, "texCoord" : 0}, "metallicFactor" : 1, "roughnessFactor" : 1}, "emissiveFactor" : [0, 0, 0], "alphaMode" : "OPAQUE", "doubleSided" : false}, {"name" : "phong2", "pbrMetallicRoughness" : {"baseColorFactor" : [0.0206560418009758, 0.07500000298023224, 0.007200001273304224, 1], "metallicFactor" : 1, "roughnessFactor" : 1}, "emissiveFactor" : [0, 0, 0], "alphaMode" : "OPAQUE", "doubleSided" : false}, {"name" : "phong1", "pbrMetallicRoughness" : {"baseColorFactor" : [1, 1, 1, 1], "baseColorTexture" : {"index" : 0, "texCoord" : 0}, "metallicFactor" : 1, "roughnessFactor" : 1}, "emissiveFactor" : [0, 0, 0], "alphaMode" : "OPAQUE", "doubleSided" : false}], "meshes" : [{"primitives" : [{"attributes" : {"POSITION" : 1, "NORMAL" : 2, "COLOR_0" : 3, "COLOR_1" : 4, "TEXCOORD_0" : 5}, "indices" : 0, "material" : 0, "mode" : 4}], "name" : ""}, {"primitives" : [{"attributes" : {"POSITION" : 7, "NORMAL" : 8, "TEXCOORD_0" : 9}, "indices" : 6, "material" : 1, "mode" : 4}], "name" : ""}, {"primitives" : [{"attributes" : {"POSITION" : 11, "NORMAL" : 12, "TEXCOORD_0" : 13}, "indices" : 10, "material" : 2, "mode" : 4}], "name" : ""}], "nodes" : [{"mesh" : 0, "name" : "polySurface1"}, {"mesh" : 1, "name" : "polySurface2"}, {"children" : [0, 1], "matrix" : [3.614189202126668, 0, 0, 0, 0, -0.05833718878396462, 0.5956366958561712, 0, 0, -2.5371544732899105, -0.24849117005734989, 0, 0.1236192338196947, 1.880825739696415, 0, 1], "name" : "pCube1"}, {"matrix" : [0.003401812867268587, 0.13999238871950814, 0, 0, -0.05958786925447904, 0.001447984295554473, 0, 0, 0, 0, 0.12436561243227987, 0, 1.5374130557824668, 2.4188926686541325, 0.3329690206331123, 1], "mesh" : 2, "name" : "pCylinder1"}, {"children" : [2, 3], "name" : "group1"}], "samplers" : [{"magFilter" : 9729, "minFilter" : 9729, "wrapS" : 10497, "wrapT" : 10497}], "scene" : 0, "scenes" : [{"nodes" : [4]}], "textures" : [{"sampler" : 0, "source" : 0, "name" : "file1"}]}