{"accessors" : [{"bufferView" : 0, "byteOffset" : 0, "componentType" : 5123, "count" : 2952, "type" : "SCALAR", "max" : [2951], "min" : [0]}, {"bufferView" : 1, "byteOffset" : 0, "componentType" : 5126, "count" : 2952, "type" : "VEC3", "max" : [25.877944946289062, 4.867193222045898, -13.760497093200684], "min" : [22.200164794921875, 4.161800384521484, -17.234493255615234], "name" : "POSITION"}, {"bufferView" : 1, "byteOffset" : 12, "componentType" : 5126, "count" : 2952, "type" : "VEC3", "max" : [0.9525853991508484, 1, 0.8071140646934509], "min" : [-0.9888839721679688, -0.9999276399612427, -0.9999607801437378], "name" : "NORMAL"}, {"bufferView" : 1, "byteOffset" : 24, "componentType" : 5126, "count" : 2952, "type" : "VEC2", "max" : [0.9871693849563599, 0.9780705571174622], "min" : [0.03343270719051361, 0.05995124578475952], "name" : "TEXCOORD_0"}], "asset" : {"generator" : "Aspose.3D 24.1.0", "version" : "2.0"}, "buffers" : [{"uri" : "data:application/octet-stream;base64,", "byteLength" : 100376}], "bufferViews" : [{"buffer" : 0, "byteOffset" : 0, "byteLength" : 5904, "target" : 34963}, {"buffer" : 0, "byteOffset" : 5908, "byteLength" : 94464, "byteStride" : 32, "target" : 34962}], "images" : [{"uri" : "C:/Users/zaina/OneDrive - Algonquin College/Desktop/IMD3901 - DS3/IMD3901_Science&Tech_Models/OutUVs/book/book_texture.png"}], "materials" : [{"name" : "phong33", "pbrMetallicRoughness" : {"baseColorFactor" : [1, 1, 1, 1], "baseColorTexture" : {"index" : 0, "texCoord" : 0}, "metallicFactor" : 1, "roughnessFactor" : 1}, "emissiveFactor" : [0, 0, 0], "alphaMode" : "OPAQUE", "doubleSided" : false}], "meshes" : [{"primitives" : [{"attributes" : {"POSITION" : 1, "NORMAL" : 2, "TEXCOORD_0" : 3}, "indices" : 0, "material" : 0, "mode" : 4}], "name" : ""}], "nodes" : [{"mesh" : 0, "name" : "book1"}], "samplers" : [{"magFilter" : 9729, "minFilter" : 9729, "wrapS" : 10497, "wrapT" : 10497}], "scene" : 0, "scenes" : [{"nodes" : [0]}], "textures" : [{"sampler" : 0, "source" : 0, "name" : "file1"}]}