{"accessors" : [{"bufferView" : 0, "byteOffset" : 0, "componentType" : 5123, "count" : 300, "type" : "SCALAR", "max" : [299], "min" : [0]}, {"bufferView" : 1, "byteOffset" : 0, "componentType" : 5126, "count" : 300, "type" : "VEC3", "max" : [2.1141834259033203, 1.0448009967803955, 1.0000001192092896], "min" : [-0.2659623622894287, -1.0037312507629395, -1.0000004768371582], "name" : "POSITION"}, {"bufferView" : 1, "byteOffset" : 12, "componentType" : 5126, "count" : 300, "type" : "VEC3", "max" : [1.0000044107437134, 0.25487539172172546, 1.0000044107437134], "min" : [-1.0000044107437134, -1.0000042915344238, -1.0000044107437134], "name" : "NORMAL"}, {"bufferView" : 1, "byteOffset" : 24, "componentType" : 5126, "count" : 300, "type" : "VEC2", "max" : [0.65625, 1.0000001192092896], "min" : [0.3437499701976776, 0.3125], "name" : "TEXCOORD_0"}, {"bufferView" : 0, "byteOffset" : 600, "componentType" : 5123, "count" : 19362, "type" : "SCALAR", "max" : [19361], "min" : [0]}, {"bufferView" : 2, "byteOffset" : 0, "componentType" : 5126, "count" : 19362, "type" : "VEC3", "max" : [6.5201802253723145, 4.962092876434326, 4.5859375], "min" : [-6.431405544281006, -0.24418355524539948, 0.6895677447319031], "name" : "POSITION"}, {"bufferView" : 2, "byteOffset" : 12, "componentType" : 5126, "count" : 19362, "type" : "VEC3", "max" : [1.0000044107437134, 1.0000044107437134, 1.0000044107437134], "min" : [-1.0000044107437134, -1.0000044107437134, -1.0000044107437134], "name" : "NORMAL"}, {"bufferView" : 2, "byteOffset" : 24, "componentType" : 5126, "count" : 19362, "type" : "VEC2", "max" : [1, 1], "min" : [0, 0.008425772190093994], "name" : "TEXCOORD_0"}], "asset" : {"generator" : "Aspose.3D 24.1.0", "version" : "2.0"}, "buffers" : [{"uri" : "data:application/octet-stream;base64,", "byteLength" : 668520}], "bufferViews" : [{"buffer" : 0, "byteOffset" : 0, "byteLength" : 39324, "target" : 34963}, {"buffer" : 0, "byteOffset" : 39328, "byteLength" : 9600, "byteStride" : 32, "target" : 34962}, {"buffer" : 0, "byteOffset" : 48932, "byteLength" : 619584, "byteStride" : 32, "target" : 34962}], "materials" : [{"name" : "phong2", "pbrMetallicRoughness" : {"baseColorFactor" : [0.8782051205635071, 0.8782051205635071, 0.8782051205635071, 1], "metallicFactor" : 1, "roughnessFactor" : 1}, "emissiveFactor" : [0, 0, 0], "alphaMode" : "OPAQUE", "doubleSided" : false}, {"name" : "phong1", "pbrMetallicRoughness" : {"baseColorFactor" : [0.08974359184503555, 0.08974359184503555, 0.08974359184503555, 1], "metallicFactor" : 1, "roughnessFactor" : 1}, "emissiveFactor" : [0, 0, 0], "alphaMode" : "OPAQUE", "doubleSided" : false}], "meshes" : [{"primitives" : [{"attributes" : {"POSITION" : 1, "NORMAL" : 2, "TEXCOORD_0" : 3}, "indices" : 0, "material" : 0, "mode" : 4}], "name" : ""}, {"primitives" : [{"attributes" : {"POSITION" : 5, "NORMAL" : 6, "TEXCOORD_0" : 7}, "indices" : 4, "material" : 1, "mode" : 4}], "name" : ""}], "nodes" : [{"matrix" : [6.4251585411803756E-18, 0.1049308020182443, 0, 0, -5.702348831560131, 3.491681622095882E-16, 0, 0, 0, 0, 0.6604061096809807, 0, 0.40154611078606894, 0.3107016344692334, 3.770749394949746, 1], "mesh" : 0, "name" : "pCylinder1"}, {"mesh" : 1, "name" : "pCube5"}, {"children" : [0, 1], "name" : "rack"}], "scene" : 0, "scenes" : [{"nodes" : [2]}]}