{"accessors" : [{"bufferView" : 0, "byteOffset" : 0, "componentType" : 5123, "count" : 720, "type" : "SCALAR", "max" : [719], "min" : [0]}, {"bufferView" : 1, "byteOffset" : 0, "componentType" : 5126, "count" : 720, "type" : "VEC3", "max" : [-1.2506537437438965, 1.0578711032867432, 1.7151973247528076], "min" : [-2.682628631591797, -0.37410426139831543, 1.4907739162445068], "name" : "POSITION"}, {"bufferView" : 1, "byteOffset" : 12, "componentType" : 5126, "count" : 720, "type" : "VEC3", "max" : [1.0000044107437134, 1.0000044107437134, 1.0000044107437134], "min" : [-1.0000044107437134, -1.0000044107437134, -1.0000044107437134], "name" : "NORMAL"}, {"bufferView" : 1, "byteOffset" : 24, "componentType" : 5126, "count" : 720, "type" : "VEC2", "max" : [0.9087836742401123, 0.7232069969177246], "min" : [0.6956878900527954, 0.6333441734313965], "name" : "TEXCOORD_0"}, {"bufferView" : 0, "byteOffset" : 1440, "componentType" : 5123, "count" : 720, "type" : "SCALAR", "max" : [719], "min" : [0]}, {"bufferView" : 2, "byteOffset" : 0, "componentType" : 5126, "count" : 720, "type" : "VEC3", "max" : [-1.2059588432312012, 1.0578711032867432, -2.0790226459503174], "min" : [-2.6379337310791016, -0.37410426139831543, -2.3034462928771973], "name" : "POSITION"}, {"bufferView" : 2, "byteOffset" : 12, "componentType" : 5126, "count" : 720, "type" : "VEC3", "max" : [1.0000044107437134, 1.0000044107437134, 1.0000044107437134], "min" : [-1.0000044107437134, -1.0000044107437134, -1.0000044107437134], "name" : "NORMAL"}, {"bufferView" : 2, "byteOffset" : 24, "componentType" : 5126, "count" : 720, "type" : "VEC2", "max" : [0.8335546255111694, 0.7720283269882202], "min" : [0.7543240785598755, 0.5728867650032043], "name" : "TEXCOORD_0"}, {"bufferView" : 0, "byteOffset" : 2880, "componentType" : 5123, "count" : 720, "type" : "SCALAR", "max" : [719], "min" : [0]}, {"bufferView" : 3, "byteOffset" : 0, "componentType" : 5126, "count" : 720, "type" : "VEC3", "max" : [2.6505000591278076, 1.0578711032867432, 1.7151973247528076], "min" : [1.2185251712799072, -0.37410426139831543, 1.4907739162445068], "name" : "POSITION"}, {"bufferView" : 3, "byteOffset" : 12, "componentType" : 5126, "count" : 720, "type" : "VEC3", "max" : [1.0000044107437134, 1.0000044107437134, 1.0000044107437134], "min" : [-1.0000044107437134, -1.0000044107437134, -1.0000044107437134], "name" : "NORMAL"}, {"bufferView" : 3, "byteOffset" : 24, "componentType" : 5126, "count" : 720, "type" : "VEC2", "max" : [0.9744396209716797, 0.6204521059989929], "min" : [0.6714736223220825, 0.4587368965148926], "name" : "TEXCOORD_0"}, {"bufferView" : 0, "byteOffset" : 4320, "componentType" : 5123, "count" : 720, "type" : "SCALAR", "max" : [719], "min" : [0]}, {"bufferView" : 4, "byteOffset" : 0, "componentType" : 5126, "count" : 720, "type" : "VEC3", "max" : [2.6504998207092285, 1.0578711032867432, -2.0652987957000732], "min" : [1.2185249328613281, -0.37410426139831543, -2.289722442626953], "name" : "POSITION"}, {"bufferView" : 4, "byteOffset" : 12, "componentType" : 5126, "count" : 720, "type" : "VEC3", "max" : [1.0000044107437134, 1.0000044107437134, 1.0000044107437134], "min" : [-1.0000044107437134, -1.0000044107437134, -1.0000044107437134], "name" : "NORMAL"}, {"bufferView" : 4, "byteOffset" : 24, "componentType" : 5126, "count" : 720, "type" : "VEC2", "max" : [0.983835756778717, 0.6766319274902344], "min" : [0.8121082186698914, 0.5057423114776611], "name" : "TEXCOORD_0"}, {"bufferView" : 0, "byteOffset" : 5760, "componentType" : 5123, "count" : 252, "type" : "SCALAR", "max" : [251], "min" : [0]}, {"bufferView" : 5, "byteOffset" : 0, "componentType" : 5126, "count" : 252, "type" : "VEC3", "max" : [2.7514450550079346, 3.5131771564483643, 2.637754440307617], "min" : [1.7289464473724365, 2.3862802982330322, 2.263683557510376], "name" : "POSITION"}, {"bufferView" : 5, "byteOffset" : 12, "componentType" : 5126, "count" : 252, "type" : "VEC3", "max" : [1.0000044107437134, 1.0000044107437134, 1.0000042915344238], "min" : [-1.0000044107437134, -1.0000044107437134, -1.0000044107437134], "name" : "NORMAL"}, {"bufferView" : 5, "byteOffset" : 24, "componentType" : 5126, "count" : 252, "type" : "VEC2", "max" : [0.9464170336723328, 0.9314394593238831], "min" : [0.7720869183540344, 0.8115717172622681], "name" : "TEXCOORD_0"}, {"bufferView" : 0, "byteOffset" : 6264, "componentType" : 5123, "count" : 7488, "type" : "SCALAR", "max" : [7487], "min" : [0]}, {"bufferView" : 6, "byteOffset" : 0, "componentType" : 5126, "count" : 7488, "type" : "VEC3", "max" : [2.926612377166748, 7.49400520324707, 2.403873920440674], "min" : [-2.926663398742676, -0.04346173256635666, -2.733278274536133], "name" : "POSITION"}, {"bufferView" : 6, "byteOffset" : 12, "componentType" : 5126, "count" : 7488, "type" : "VEC3", "max" : [1.0000044107437134, 1.0000044107437134, 1.0000044107437134], "min" : [-1.0000044107437134, -1.0000044107437134, -1.0000044107437134], "name" : "NORMAL"}, {"bufferView" : 6, "byteOffset" : 24, "componentType" : 5126, "count" : 7488, "type" : "VEC2", "max" : [0.9081950187683105, 0.9905215501785278], "min" : [0.015698961913585663, 0.012570500373840332], "name" : "TEXCOORD_0"}, {"bufferView" : 0, "byteOffset" : 21240, "componentType" : 5123, "count" : 252, "type" : "SCALAR", "max" : [251], "min" : [0]}, {"bufferView" : 7, "byteOffset" : 0, "componentType" : 5126, "count" : 252, "type" : "VEC3", "max" : [2.7514450550079346, 6.254286289215088, 2.637754440307617], "min" : [1.7289464473724365, 5.127389430999756, 2.263683557510376], "name" : "POSITION"}, {"bufferView" : 7, "byteOffset" : 12, "componentType" : 5126, "count" : 252, "type" : "VEC3", "max" : [1.0000044107437134, 1.0000044107437134, 1.0000042915344238], "min" : [-1.0000044107437134, -1.0000044107437134, -1.0000044107437134], "name" : "NORMAL"}, {"bufferView" : 7, "byteOffset" : 24, "componentType" : 5126, "count" : 252, "type" : "VEC2", "max" : [0.8295506834983826, 0.9363118410110474], "min" : [0.7633958458900452, 0.8120540976524353], "name" : "TEXCOORD_0"}, {"bufferView" : 0, "byteOffset" : 21744, "componentType" : 5123, "count" : 2514, "type" : "SCALAR", "max" : [2513], "min" : [0]}, {"bufferView" : 8, "byteOffset" : 0, "componentType" : 5126, "count" : 2514, "type" : "VEC3", "max" : [-0.8236059546470642, 4.554361343383789, 2.7495806217193604], "min" : [-1.165593147277832, 3.476174831390381, 2.4075934886932373], "name" : "POSITION"}, {"bufferView" : 8, "byteOffset" : 12, "componentType" : 5126, "count" : 2514, "type" : "VEC3", "max" : [1.0000044107437134, 1.0000044107437134, 1.0000044107437134], "min" : [-1.0000044107437134, -1.0000044107437134, -1.0000044107437134], "name" : "NORMAL"}, {"bufferView" : 8, "byteOffset" : 24, "componentType" : 5126, "count" : 2514, "type" : "VEC2", "max" : [0.08161699771881104, 0.6757901906967163], "min" : [0.04696133732795715, 0.6295033693313599], "name" : "TEXCOORD_0"}, {"bufferView" : 0, "byteOffset" : 26772, "componentType" : 5123, "count" : 288, "type" : "SCALAR", "max" : [258], "min" : [0]}, {"bufferView" : 9, "byteOffset" : 0, "componentType" : 5126, "count" : 259, "type" : "VEC3", "max" : [-0.8045144081115723, 4.576208114624023, 2.4470486640930176], "min" : [-1.1856647729873657, 4.1950578689575195, 2.3357181549072266], "name" : "POSITION"}, {"bufferView" : 9, "byteOffset" : 12, "componentType" : 5126, "count" : 259, "type" : "VEC3", "max" : [0.9037588834762573, 0.9037598371505737, 0.42758557200431824], "min" : [-0.9037600159645081, -0.9037600159645081, 0.42458534240722656], "name" : "NORMAL"}, {"bufferView" : 9, "byteOffset" : 24, "componentType" : 5126, "count" : 259, "type" : "VEC2", "max" : [0.4663313031196594, 0.8462599515914917], "min" : [0.4485217034816742, 0.8284080624580383], "name" : "TEXCOORD_0"}, {"bufferView" : 0, "byteOffset" : 27348, "componentType" : 5123, "count" : 1224, "type" : "SCALAR", "max" : [1223], "min" : [0]}, {"bufferView" : 10, "byteOffset" : 0, "componentType" : 5126, "count" : 1224, "type" : "VEC3", "max" : [0.7670567631721497, 5.101795673370361, 2.767648935317993], "min" : [-0.6652663350105286, 3.6694719791412354, 2.3511993885040283], "name" : "POSITION"}, {"bufferView" : 10, "byteOffset" : 12, "componentType" : 5126, "count" : 1224, "type" : "VEC3", "max" : [1.0000044107437134, 1.0000044107437134, 1.0000044107437134], "min" : [-1.0000044107437134, -1.0000044107437134, -3.4973063520737924E-06], "name" : "NORMAL"}, {"bufferView" : 10, "byteOffset" : 24, "componentType" : 5126, "count" : 1224, "type" : "VEC2", "max" : [0.40721002221107483, 0.9312424659729004], "min" : [0.28323638439178467, 0.8100956082344055], "name" : "TEXCOORD_0"}, {"bufferView" : 0, "byteOffset" : 29796, "componentType" : 5123, "count" : 1800, "type" : "SCALAR", "max" : [1799], "min" : [0]}, {"bufferView" : 11, "byteOffset" : 0, "componentType" : 5126, "count" : 1800, "type" : "VEC3", "max" : [2.373328924179077, 4.023632049560547, 2.546170234680176], "min" : [2.1004185676574707, 1.9016121625900269, 2.2732598781585693], "name" : "POSITION"}, {"bufferView" : 11, "byteOffset" : 12, "componentType" : 5126, "count" : 1800, "type" : "VEC3", "max" : [0.9989578723907471, 1.000003457069397, 0.9989478588104248], "min" : [-0.9989615678787231, -1.000003457069397, -0.9989596009254456], "name" : "NORMAL"}, {"bufferView" : 11, "byteOffset" : 24, "componentType" : 5126, "count" : 1800, "type" : "VEC2", "max" : [0.08945012092590332, 0.6835669279098511], "min" : [0.041999101638793945, 0.6126502752304077], "name" : "TEXCOORD_0"}, {"bufferView" : 0, "byteOffset" : 33396, "componentType" : 5123, "count" : 1800, "type" : "SCALAR", "max" : [1799], "min" : [0]}, {"bufferView" : 12, "byteOffset" : 0, "componentType" : 5126, "count" : 1800, "type" : "VEC3", "max" : [2.373328924179077, 6.82460355758667, 2.546170234680176], "min" : [2.1004185676574707, 4.7025837898254395, 2.2732598781585693], "name" : "POSITION"}, {"bufferView" : 12, "byteOffset" : 12, "componentType" : 5126, "count" : 1800, "type" : "VEC3", "max" : [0.9989578127861023, 1.000003457069397, 0.9989479184150696], "min" : [-0.9989615678787231, -1.0000035762786865, -0.9989596009254456], "name" : "NORMAL"}, {"bufferView" : 12, "byteOffset" : 24, "componentType" : 5126, "count" : 1800, "type" : "VEC2", "max" : [0.08533275127410889, 0.6854188442230225], "min" : [0.05010002851486206, 0.6125514507293701], "name" : "TEXCOORD_0"}], "asset" : {"generator" : "Aspose.3D 24.1.0", "version" : "2.0"}, "buffers" : [{"uri" : "data:application/octet-stream;base64,", "byteLength" : 628984}], "bufferViews" : [{"buffer" : 0, "byteOffset" : 0, "byteLength" : 36996, "target" : 34963}, {"buffer" : 0, "byteOffset" : 37000, "byteLength" : 23040, "byteStride" : 32, "target" : 34962}, {"buffer" : 0, "byteOffset" : 60044, "byteLength" : 23040, "byteStride" : 32, "target" : 34962}, {"buffer" : 0, "byteOffset" : 83088, "byteLength" : 23040, "byteStride" : 32, "target" : 34962}, {"buffer" : 0, "byteOffset" : 106132, "byteLength" : 23040, "byteStride" : 32, "target" : 34962}, {"buffer" : 0, "byteOffset" : 129176, "byteLength" : 8064, "byteStride" : 32, "target" : 34962}, {"buffer" : 0, "byteOffset" : 137244, "byteLength" : 239616, "byteStride" : 32, "target" : 34962}, {"buffer" : 0, "byteOffset" : 376864, "byteLength" : 8064, "byteStride" : 32, "target" : 34962}, {"buffer" : 0, "byteOffset" : 384932, "byteLength" : 80448, "byteStride" : 32, "target" : 34962}, {"buffer" : 0, "byteOffset" : 465384, "byteLength" : 9216, "byteStride" : 32, "target" : 34962}, {"buffer" : 0, "byteOffset" : 474604, "byteLength" : 39168, "byteStride" : 32, "target" : 34962}, {"buffer" : 0, "byteOffset" : 513776, "byteLength" : 57600, "byteStride" : 32, "target" : 34962}, {"buffer" : 0, "byteOffset" : 571380, "byteLength" : 57600, "byteStride" : 32, "target" : 34962}], "images" : [{"uri" : "C:/Users/zaina/OneDrive - Algonquin College/Desktop/IMD3901 - DS3/IMD3901_Science&Tech_Models/OutUVs/Texture_safe_f.png"}], "materials" : [{"name" : "phong6", "pbrMetallicRoughness" : {"baseColorFactor" : [1, 1, 1, 1], "baseColorTexture" : {"index" : 0, "texCoord" : 0}, "metallicFactor" : 1, "roughnessFactor" : 1}, "emissiveFactor" : [0, 0, 0], "alphaMode" : "OPAQUE", "doubleSided" : false}, {"name" : "phong6", "pbrMetallicRoughness" : {"baseColorFactor" : [1, 1, 1, 1], "baseColorTexture" : {"index" : 0, "texCoord" : 0}, "metallicFactor" : 1, "roughnessFactor" : 1}, "emissiveFactor" : [0, 0, 0], "alphaMode" : "OPAQUE", "doubleSided" : false}, {"name" : "phong6", "pbrMetallicRoughness" : {"baseColorFactor" : [1, 1, 1, 1], "baseColorTexture" : {"index" : 0, "texCoord" : 0}, "metallicFactor" : 1, "roughnessFactor" : 1}, "emissiveFactor" : [0, 0, 0], "alphaMode" : "OPAQUE", "doubleSided" : false}, {"name" : "phong6", "pbrMetallicRoughness" : {"baseColorFactor" : [1, 1, 1, 1], "baseColorTexture" : {"index" : 0, "texCoord" : 0}, "metallicFactor" : 1, "roughnessFactor" : 1}, "emissiveFactor" : [0, 0, 0], "alphaMode" : "OPAQUE", "doubleSided" : false}, {"name" : "phong6", "pbrMetallicRoughness" : {"baseColorFactor" : [1, 1, 1, 1], "baseColorTexture" : {"index" : 0, "texCoord" : 0}, "metallicFactor" : 1, "roughnessFactor" : 1}, "emissiveFactor" : [0, 0, 0], "alphaMode" : "OPAQUE", "doubleSided" : false}, {"name" : "phong6", "pbrMetallicRoughness" : {"baseColorFactor" : [1, 1, 1, 1], "baseColorTexture" : {"index" : 0, "texCoord" : 0}, "metallicFactor" : 1, "roughnessFactor" : 1}, "emissiveFactor" : [0, 0, 0], "alphaMode" : "OPAQUE", "doubleSided" : false}, {"name" : "phong6", "pbrMetallicRoughness" : {"baseColorFactor" : [1, 1, 1, 1], "baseColorTexture" : {"index" : 0, "texCoord" : 0}, "metallicFactor" : 1, "roughnessFactor" : 1}, "emissiveFactor" : [0, 0, 0], "alphaMode" : "OPAQUE", "doubleSided" : false}, {"name" : "phong3", "pbrMetallicRoughness" : {"baseColorFactor" : [0.07500000298023224, 0.07500000298023224, 0.07500000298023224, 1], "metallicFactor" : 1, "roughnessFactor" : 1}, "emissiveFactor" : [0, 0, 0], "alphaMode" : "OPAQUE", "doubleSided" : false}, {"name" : "phong5", "pbrMetallicRoughness" : {"baseColorFactor" : [0.07500000298023224, 0.07500000298023224, 0.07500000298023224, 1], "metallicFactor" : 1, "roughnessFactor" : 1}, "emissiveFactor" : [0, 0, 0], "alphaMode" : "OPAQUE", "doubleSided" : false}, {"name" : "phong4", "pbrMetallicRoughness" : {"baseColorFactor" : [0.07500000298023224, 0.07500000298023224, 0.07500000298023224, 1], "metallicFactor" : 1, "roughnessFactor" : 1}, "emissiveFactor" : [0, 0, 0], "alphaMode" : "OPAQUE", "doubleSided" : false}, {"name" : "phong2", "pbrMetallicRoughness" : {"baseColorFactor" : [0.07500000298023224, 0.07500000298023224, 0.07500000298023224, 1], "metallicFactor" : 1, "roughnessFactor" : 1}, "emissiveFactor" : [0, 0, 0], "alphaMode" : "OPAQUE", "doubleSided" : false}, {"name" : "phong1", "pbrMetallicRoughness" : {"baseColorFactor" : [0.07500000298023224, 0.07500000298023224, 0.07500000298023224, 1], "metallicFactor" : 1, "roughnessFactor" : 1}, "emissiveFactor" : [0, 0, 0], "alphaMode" : "OPAQUE", "doubleSided" : false}], "meshes" : [{"primitives" : [{"attributes" : {"POSITION" : 1, "NORMAL" : 2, "TEXCOORD_0" : 3}, "indices" : 0, "material" : 0, "mode" : 4}], "name" : ""}, {"primitives" : [{"attributes" : {"POSITION" : 5, "NORMAL" : 6, "TEXCOORD_0" : 7}, "indices" : 4, "material" : 1, "mode" : 4}], "name" : ""}, {"primitives" : [{"attributes" : {"POSITION" : 9, "NORMAL" : 10, "TEXCOORD_0" : 11}, "indices" : 8, "material" : 2, "mode" : 4}], "name" : ""}, {"primitives" : [{"attributes" : {"POSITION" : 13, "NORMAL" : 14, "TEXCOORD_0" : 15}, "indices" : 12, "material" : 3, "mode" : 4}], "name" : ""}, {"primitives" : [{"attributes" : {"POSITION" : 17, "NORMAL" : 18, "TEXCOORD_0" : 19}, "indices" : 16, "material" : 4, "mode" : 4}], "name" : ""}, {"primitives" : [{"attributes" : {"POSITION" : 21, "NORMAL" : 22, "TEXCOORD_0" : 23}, "indices" : 20, "material" : 5, "mode" : 4}], "name" : ""}, {"primitives" : [{"attributes" : {"POSITION" : 25, "NORMAL" : 26, "TEXCOORD_0" : 27}, "indices" : 24, "material" : 6, "mode" : 4}], "name" : ""}, {"primitives" : [{"attributes" : {"POSITION" : 29, "NORMAL" : 30, "TEXCOORD_0" : 31}, "indices" : 28, "material" : 7, "mode" : 4}], "name" : ""}, {"primitives" : [{"attributes" : {"POSITION" : 33, "NORMAL" : 34, "TEXCOORD_0" : 35}, "indices" : 32, "material" : 8, "mode" : 4}], "name" : ""}, {"primitives" : [{"attributes" : {"POSITION" : 37, "NORMAL" : 38, "TEXCOORD_0" : 39}, "indices" : 36, "material" : 9, "mode" : 4}], "name" : ""}, {"primitives" : [{"attributes" : {"POSITION" : 41, "NORMAL" : 42, "TEXCOORD_0" : 43}, "indices" : 40, "material" : 10, "mode" : 4}], "name" : ""}, {"primitives" : [{"attributes" : {"POSITION" : 45, "NORMAL" : 46, "TEXCOORD_0" : 47}, "indices" : 44, "material" : 11, "mode" : 4}], "name" : ""}], "nodes" : [{"mesh" : 0, "name" : "polySurface1"}, {"mesh" : 1, "name" : "polySurface2"}, {"mesh" : 2, "name" : "polySurface3"}, {"mesh" : 3, "name" : "polySurface4"}, {"mesh" : 4, "name" : "polySurface8"}, {"mesh" : 5, "name" : "polySurface13"}, {"mesh" : 6, "name" : "polySurface10"}, {"children" : [0, 1, 2, 3, 4, 5, 6], "name" : "safe"}, {"matrix" : [1, 0, 0, 0, 0, 1, 0, 0, 0, 0, 1, 0, 0, 0, -0.030172055634441808, 1], "mesh" : 7, "name" : "polySurface6"}, {"matrix" : [1, 0, 0, 0, 0, 1, 0, 0, 0, 0, 1, 0, 0, 0, 0.004027142649491999, 1], "mesh" : 8, "name" : "polySurface12"}, {"mesh" : 9, "name" : "polySurface14"}, {"mesh" : 10, "name" : "polySurface5"}, {"mesh" : 11, "name" : "polySurface9"}, {"children" : [8, 9, 10, 11, 12], "name" : "metals"}], "samplers" : [{"magFilter" : 9729, "minFilter" : 9729, "wrapS" : 10497, "wrapT" : 10497}], "scene" : 0, "scenes" : [{"nodes" : [7, 13]}], "textures" : [{"sampler" : 0, "source" : 0, "name" : "file1"}]}