{"accessors" : [{"bufferView" : 0, "byteOffset" : 0, "componentType" : 5123, "count" : 390, "type" : "SCALAR", "max" : [331], "min" : [0]}, {"bufferView" : 1, "byteOffset" : 0, "componentType" : 5126, "count" : 332, "type" : "VEC3", "max" : [1.0352272987365723, 1.7071068286895752, 1.0256528854370117], "min" : [-1.0305233001708984, -1.9436107873916626, -1.0256528854370117], "name" : "POSITION"}, {"bufferView" : 1, "byteOffset" : 12, "componentType" : 5126, "count" : 332, "type" : "VEC3", "max" : [0.999840497970581, 0.027845941483974457, 0.9507002830505371], "min" : [-0.999840497970581, -1.0000044107437134, -0.9507003426551819], "name" : "NORMAL"}, {"bufferView" : 1, "byteOffset" : 24, "componentType" : 5126, "count" : 332, "type" : "VEC2", "max" : [0.65625, 0.9923526048660278], "min" : [0.34375, 0.007647395133972168], "name" : "TEXCOORD_0"}], "asset" : {"generator" : "Aspose.3D 24.1.0", "version" : "2.0"}, "buffers" : [{"uri" : "data:application/octet-stream;base64,", "byteLength" : 13268}], "bufferViews" : [{"buffer" : 0, "byteOffset" : 0, "byteLength" : 780, "target" : 34963}, {"buffer" : 0, "byteOffset" : 784, "byteLength" : 12480, "byteStride" : 32, "target" : 34962}], "materials" : [{"name" : "phong1", "pbrMetallicRoughness" : {"baseColorFactor" : [0.8270000219345093, 0.9800387024879456, 1, 0.3333333134651184], "metallicFactor" : 1, "roughnessFactor" : 1}, "emissiveFactor" : [0, 0, 0], "alphaMode" : "BLEND", "doubleSided" : false}], "meshes" : [{"primitives" : [{"attributes" : {"POSITION" : 1, "NORMAL" : 2, "TEXCOORD_0" : 3}, "indices" : 0, "material" : 0, "mode" : 4}], "name" : ""}], "nodes" : [{"matrix" : [0.4515277101872691, 0, 0, 0, 0, 1, 0, 0, 0, 0, 0.4690821718072309, 0, -0.5961629483823724, 2.360028499687158, 0, 1], "mesh" : 0, "name" : "testTube"}], "scene" : 0, "scenes" : [{"nodes" : [0]}]}