{"accessors" : [{"bufferView" : 0, "byteOffset" : 0, "componentType" : 5123, "count" : 7782, "type" : "SCALAR", "max" : [7781], "min" : [0]}, {"bufferView" : 1, "byteOffset" : 0, "componentType" : 5126, "count" : 7782, "type" : "VEC3", "max" : [0.48167625069618225, 2.10113525390625, 0.48167625069618225], "min" : [-0.4816763401031494, -0.4835432171821594, -0.4816763699054718], "name" : "POSITION"}, {"bufferView" : 1, "byteOffset" : 12, "componentType" : 5126, "count" : 7782, "type" : "VEC3", "max" : [1.0000044107437134, 1.0000044107437134, 0.9941461086273193], "min" : [-1.0000044107437134, -1.0000044107437134, -1.0000044107437134], "name" : "NORMAL"}, {"bufferView" : 1, "byteOffset" : 24, "componentType" : 5126, "count" : 7782, "type" : "VEC2", "max" : [0.5300905704498291, 0.9900427460670471], "min" : [0.009429305791854858, 0.15322381258010864], "name" : "TEXCOORD_0"}, {"bufferView" : 0, "byteOffset" : 15564, "componentType" : 5123, "count" : 60, "type" : "SCALAR", "max" : [58], "min" : [0]}, {"bufferView" : 2, "byteOffset" : 0, "componentType" : 5126, "count" : 59, "type" : "VEC3", "max" : [0.43772172927856445, 3.0746028423309326, 0.7778382301330566], "min" : [-0.43654975295066833, 2.2092714309692383, 0.6306340098381042], "name" : "POSITION"}, {"bufferView" : 2, "byteOffset" : 12, "componentType" : 5126, "count" : 59, "type" : "VEC3", "max" : [0.19381940364837646, 0.05048396810889244, 0.9987291097640991], "min" : [-0.19104716181755066, -0.3304463028907776, 0.9438270926475525], "name" : "NORMAL"}, {"bufferView" : 2, "byteOffset" : 24, "componentType" : 5126, "count" : 59, "type" : "VEC2", "max" : [0.16890747845172882, 0.2410324215888977], "min" : [0, 0.07212477922439575], "name" : "TEXCOORD_0"}, {"bufferView" : 0, "byteOffset" : 15684, "componentType" : 5123, "count" : 60, "type" : "SCALAR", "max" : [58], "min" : [0]}, {"bufferView" : 3, "byteOffset" : 0, "componentType" : 5126, "count" : 59, "type" : "VEC3", "max" : [0.6875931620597839, 3.497783899307251, 0.17464765906333923], "min" : [-0.6897127032279968, 2.1345620155334473, -0.7571612596511841], "name" : "POSITION"}, {"bufferView" : 3, "byteOffset" : 12, "componentType" : 5126, "count" : 59, "type" : "VEC3", "max" : [0.7722193002700806, 0.8481157422065735, -0.5298057198524475], "min" : [-0.7738409042358398, -0.6854307651519775, -0.9907899498939514], "name" : "NORMAL"}, {"bufferView" : 3, "byteOffset" : 24, "componentType" : 5126, "count" : 59, "type" : "VEC2", "max" : [0.9144426584243774, 0.9136098623275757], "min" : [0.630290150642395, 0.6304163336753845], "name" : "TEXCOORD_0"}, {"bufferView" : 0, "byteOffset" : 15804, "componentType" : 5123, "count" : 600, "type" : "SCALAR", "max" : [599], "min" : [0]}, {"bufferView" : 4, "byteOffset" : 0, "componentType" : 5126, "count" : 600, "type" : "VEC3", "max" : [0.4561762809753418, 3.10563588142395, 0.7723968029022217], "min" : [-0.4549821615219116, 2.1898958683013916, 0.5092312097549438], "name" : "POSITION"}, {"bufferView" : 4, "byteOffset" : 12, "componentType" : 5126, "count" : 600, "type" : "VEC3", "max" : [0.9992761611938477, 0.9943238496780396, 0.9978631734848022], "min" : [-0.9993793964385986, -0.983893096446991, -0.9995499849319458], "name" : "NORMAL"}, {"bufferView" : 4, "byteOffset" : 24, "componentType" : 5126, "count" : 600, "type" : "VEC2", "max" : [0.23784713447093964, 0.47697603702545166], "min" : [0, 0.23910367488861084], "name" : "TEXCOORD_0"}, {"bufferView" : 0, "byteOffset" : 17004, "componentType" : 5123, "count" : 1083, "type" : "SCALAR", "max" : [1082], "min" : [0]}, {"bufferView" : 5, "byteOffset" : 0, "componentType" : 5126, "count" : 1083, "type" : "VEC3", "max" : [0.704118013381958, 3.511037588119507, 0.6264753341674805], "min" : [-0.7061766386032104, 2.0983901023864746, -0.7571612596511841], "name" : "POSITION"}, {"bufferView" : 5, "byteOffset" : 12, "componentType" : 5126, "count" : 1083, "type" : "VEC3", "max" : [1.0000044107437134, 0.9741563200950623, 0.9938014149665833], "min" : [-0.9978642463684082, -0.9999968409538269, -1.0000044107437134], "name" : "NORMAL"}, {"bufferView" : 5, "byteOffset" : 24, "componentType" : 5126, "count" : 1083, "type" : "VEC2", "max" : [1, 0.9999948740005493], "min" : [0.0027441466227173805, 0.1275954246520996], "name" : "TEXCOORD_0"}], "asset" : {"generator" : "Aspose.3D 24.1.0", "version" : "2.0"}, "buffers" : [{"uri" : "data:application/octet-stream;base64,", "byteLength" : 325916}], "bufferViews" : [{"buffer" : 0, "byteOffset" : 0, "byteLength" : 19172, "target" : 34963}, {"buffer" : 0, "byteOffset" : 19176, "byteLength" : 249024, "byteStride" : 32, "target" : 34962}, {"buffer" : 0, "byteOffset" : 268204, "byteLength" : 1920, "byteStride" : 32, "target" : 34962}, {"buffer" : 0, "byteOffset" : 270128, "byteLength" : 1920, "byteStride" : 32, "target" : 34962}, {"buffer" : 0, "byteOffset" : 272052, "byteLength" : 19200, "byteStride" : 32, "target" : 34962}, {"buffer" : 0, "byteOffset" : 291256, "byteLength" : 34656, "byteStride" : 32, "target" : 34962}], "materials" : [{"name" : "phong1", "pbrMetallicRoughness" : {"baseColorFactor" : [0.05128205195069313, 0.05128205195069313, 0.05128205195069313, 0.9487179480493069], "metallicFactor" : 1, "roughnessFactor" : 1}, "emissiveFactor" : [0, 0, 0], "alphaMode" : "BLEND", "doubleSided" : false}, {"name" : "phong2", "pbrMetallicRoughness" : {"baseColorFactor" : [0.5, 0.5, 0.5, 0.5], "metallicFactor" : 1, "roughnessFactor" : 1}, "emissiveFactor" : [0, 0, 0], "alphaMode" : "BLEND", "doubleSided" : false}, {"name" : "phong3", "pbrMetallicRoughness" : {"baseColorFactor" : [0.5, 0.5, 0.5, 0.5], "metallicFactor" : 1, "roughnessFactor" : 1}, "emissiveFactor" : [0, 0, 0], "alphaMode" : "BLEND", "doubleSided" : false}, {"name" : "phong4", "pbrMetallicRoughness" : {"baseColorFactor" : [0, 0, 0, 1], "metallicFactor" : 1, "roughnessFactor" : 1}, "emissiveFactor" : [0, 0, 0], "alphaMode" : "OPAQUE", "doubleSided" : false}, {"name" : "phong5", "pbrMetallicRoughness" : {"baseColorFactor" : [0.5759999752044678, 0.5104064345359802, 0.15494398772716522, 1], "metallicFactor" : 1, "roughnessFactor" : 1}, "emissiveFactor" : [0, 0, 0], "alphaMode" : "OPAQUE", "doubleSided" : false}], "meshes" : [{"primitives" : [{"attributes" : {"POSITION" : 1, "NORMAL" : 2, "TEXCOORD_0" : 3}, "indices" : 0, "material" : 0, "mode" : 4}], "name" : ""}, {"primitives" : [{"attributes" : {"POSITION" : 5, "NORMAL" : 6, "TEXCOORD_0" : 7}, "indices" : 4, "material" : 1, "mode" : 4}], "name" : ""}, {"primitives" : [{"attributes" : {"POSITION" : 9, "NORMAL" : 10, "TEXCOORD_0" : 11}, "indices" : 8, "material" : 2, "mode" : 4}], "name" : ""}, {"primitives" : [{"attributes" : {"POSITION" : 13, "NORMAL" : 14, "TEXCOORD_0" : 15}, "indices" : 12, "material" : 3, "mode" : 4}], "name" : ""}, {"primitives" : [{"attributes" : {"POSITION" : 17, "NORMAL" : 18, "TEXCOORD_0" : 19}, "indices" : 16, "material" : 4, "mode" : 4}], "name" : ""}], "nodes" : [{"mesh" : 0, "name" : "polySurface1"}, {"matrix" : [0.9841963645457048, 0, 0, 0, 0, 0.9841963645457048, 0, 0, 0, 0, 0.9841963645457048, 0, 9.260743323566845E-06, 0.041752211400782446, 0.011129490913999396, 1], "mesh" : 1, "name" : "polySurface3"}, {"mesh" : 2, "name" : "polySurface5"}, {"mesh" : 3, "name" : "polySurface7"}, {"mesh" : 4, "name" : "polySurface8"}, {"children" : [3, 4], "name" : "polySurface6"}, {"children" : [2, 5], "name" : "polySurface4"}, {"children" : [1, 6], "name" : "polySurface2"}, {"children" : [0, 7], "matrix" : [1, 0, 0, 0, 0, 1, 0, 0, 0, 0, 1, 0, 0, 0.5467670512693656, 0, 1], "name" : "token"}], "scene" : 0, "scenes" : [{"nodes" : [8]}]}